<svg xmlns="http://www.w3.org/2000/svg" xmlns:xlink="http://www.w3.org/1999/xlink" xmlns:lucid="lucid" width="1200" height="1580"><g transform="translate(-320 -20)" lucid:page-tab-id="0_0"><path d="M527.04 840.33A8.43 8.43 0 0 0 535 846h99a6 6 0 0 1 6 6v162a6 6 0 0 1-6 6H346a6 6 0 0 1-6-6V826a6 6 0 0 1 6-6h168a8.43 8.43 0 0 1 7.96 5.67zM340 846h189" stroke="#3a414a" stroke-width="2" fill="#fff"/><use xlink:href="#a" transform="matrix(1,0,0,1,352,854) translate(15.370370370370352 83.88888888888889)"/><path d="M1027.04 280.33A8.43 8.43 0 0 0 1035 286h99a6 6 0 0 1 6 6v162a6 6 0 0 1-6 6H846a6 6 0 0 1-6-6V266a6 6 0 0 1 6-6h168a8.43 8.43 0 0 1 7.96 5.67zM840 286h189" stroke="#3a414a" stroke-width="2" fill="#fff"/><use xlink:href="#b" transform="matrix(1,0,0,1,852,294) translate(102.08024691358025 83.88888888888889)"/><path d="M1027.04 500.33A8.43 8.43 0 0 0 1035 506h99a6 6 0 0 1 6 6v162a6 6 0 0 1-6 6H846a6 6 0 0 1-6-6V486a6 6 0 0 1 6-6h168a8.43 8.43 0 0 1 7.96 5.67zM840 506h189" stroke="#3a414a" stroke-width="2" fill="#fff"/><use xlink:href="#c" transform="matrix(1,0,0,1,852,514) translate(81.77777777777777 83.88888888888889)"/><path d="M1027.04 720.33A8.43 8.43 0 0 0 1035 726h99a6 6 0 0 1 6 6v162a6 6 0 0 1-6 6H846a6 6 0 0 1-6-6V706a6 6 0 0 1 6-6h168a8.43 8.43 0 0 1 7.96 5.67zM840 726h189" stroke="#3a414a" stroke-width="2" fill="#fff"/><use xlink:href="#d" transform="matrix(1,0,0,1,852,734) translate(105.50925925925927 83.88888888888889)"/><path d="M1027.04 940.33A8.43 8.43 0 0 0 1035 946h99a6 6 0 0 1 6 6v162a6 6 0 0 1-6 6H846a6 6 0 0 1-6-6V926a6 6 0 0 1 6-6h168a8.43 8.43 0 0 1 7.96 5.67zM840 946h189" stroke="#3a414a" stroke-width="2" fill="#fff"/><use xlink:href="#e" transform="matrix(1,0,0,1,852,954) translate(98.71913580246914 83.88888888888889)"/><path d="M671.62 920H734a6 6 0 0 0 6-6V366a6 6 0 0 1 6-6h92.04" stroke="#3a414a" stroke-width="2" fill="none"/><path d="M671.96 920c0 8.28-6.72 15-15 15-8.3 0-15-6.72-15-15 0-8.28 6.7-15 15-15 8.28 0 15 6.72 15 15zm-30 0h30zm14.85-14.85v29.7z" stroke="#3a414a" stroke-width="2" fill="#fff"/><path d="M839.04 361H838v-2h1.04z" stroke="#3a414a" stroke-width=".05" fill="#3a414a"/><path d="M671.62 920H734a6 6 0 0 0 6-6V586a6 6 0 0 1 6-6h92.04" stroke="#3a414a" stroke-width="2" fill="none"/><path d="M671.96 920c0 8.28-6.72 15-15 15-8.3 0-15-6.72-15-15 0-8.28 6.7-15 15-15 8.28 0 15 6.72 15 15zm-30 0h30zm14.85-14.85v29.7z" stroke="#3a414a" stroke-width="2" fill="#fff"/><path d="M839.04 581H838v-2h1.04z" stroke="#3a414a" stroke-width=".05" fill="#3a414a"/><path d="M671.62 920H734a6 6 0 0 0 6-6V806a6 6 0 0 1 6-6h92.04" stroke="#3a414a" stroke-width="2" fill="none"/><path d="M671.96 920c0 8.28-6.72 15-15 15-8.3 0-15-6.72-15-15 0-8.28 6.7-15 15-15 8.28 0 15 6.72 15 15zm-30 0h30zm14.85-14.85v29.7z" stroke="#3a414a" stroke-width="2" fill="#fff"/><path d="M839.04 801H838v-2h1.04z" stroke="#3a414a" stroke-width=".05" fill="#3a414a"/><path d="M671.62 920H734a6 6 0 0 1 6 6v88a6 6 0 0 0 6 6h92.04" stroke="#3a414a" stroke-width="2" fill="none"/><path d="M671.96 920c0 8.28-6.72 15-15 15-8.3 0-15-6.72-15-15 0-8.28 6.7-15 15-15 8.28 0 15 6.72 15 15zm-30 0h30zm14.85-14.85v29.7z" stroke="#3a414a" stroke-width="2" fill="#fff"/><path d="M839.04 1021H838v-2h1.04z" stroke="#3a414a" stroke-width=".05" fill="#3a414a"/><path d="M1027.04 1160.33a8.43 8.43 0 0 0 7.96 5.67h99a6 6 0 0 1 6 6v162a6 6 0 0 1-6 6H846a6 6 0 0 1-6-6v-188a6 6 0 0 1 6-6h168a8.43 8.43 0 0 1 7.96 5.67zM840 1166h189" stroke="#3a414a" stroke-width="2" fill="#fff"/><use xlink:href="#f" transform="matrix(1,0,0,1,852,1174) translate(111.51851851851852 83.88888888888889)"/><path d="M1027.04 1380.33a8.43 8.43 0 0 0 7.96 5.67h99a6 6 0 0 1 6 6v162a6 6 0 0 1-6 6H846a6 6 0 0 1-6-6v-188a6 6 0 0 1 6-6h168a8.43 8.43 0 0 1 7.96 5.67zM840 1386h189" stroke="#3a414a" stroke-width="2" fill="#fff"/><use xlink:href="#g" transform="matrix(1,0,0,1,852,1394) translate(100.11111111111111 83.88888888888889)"/><path d="M671.62 920H734a6 6 0 0 1 6 6v308a6 6 0 0 0 6 6h92.04" stroke="#3a414a" stroke-width="2" fill="none"/><path d="M671.96 920c0 8.28-6.72 15-15 15-8.3 0-15-6.72-15-15 0-8.28 6.7-15 15-15 8.28 0 15 6.72 15 15zm-30 0h30zm14.85-14.85v29.7z" stroke="#3a414a" stroke-width="2" fill="#fff"/><path d="M839.04 1241H838v-2h1.04z" stroke="#3a414a" stroke-width=".05" fill="#3a414a"/><path d="M671.62 920H734a6 6 0 0 1 6 6v528a6 6 0 0 0 6 6h92.04" stroke="#3a414a" stroke-width="2" fill="none"/><path d="M671.96 920c0 8.28-6.72 15-15 15-8.3 0-15-6.72-15-15 0-8.28 6.7-15 15-15 8.28 0 15 6.72 15 15zm-30 0h30zm14.85-14.85v29.7z" stroke="#3a414a" stroke-width="2" fill="#fff"/><path d="M839.04 1461H838v-2h1.04z" stroke="#3a414a" stroke-width=".05" fill="#3a414a"/><path d="M1417.44 60.2A7.83 7.83 0 0 0 1425 66h69a6 6 0 0 1 6 6v102a6 6 0 0 1-6 6h-208a6 6 0 0 1-6-6V46a6 6 0 0 1 6-6h120a7.83 7.83 0 0 1 7.56 5.8zM1280 66h139" stroke="#3a414a" stroke-width="2" fill="#fff"/><use xlink:href="#h" transform="matrix(1,0,0,1,1292,74) translate(64.15123456790124 53.888888888888886)"/><path d="M1417.44 220.2a7.83 7.83 0 0 0 7.56 5.8h69a6 6 0 0 1 6 6v102a6 6 0 0 1-6 6h-208a6 6 0 0 1-6-6V206a6 6 0 0 1 6-6h120a7.83 7.83 0 0 1 7.56 5.8zM1280 226h139" stroke="#3a414a" stroke-width="2" fill="#fff"/><use xlink:href="#i" transform="matrix(1,0,0,1,1292,234) translate(61.401234567901234 53.888888888888886)"/><path d="M1417.44 400.2a7.83 7.83 0 0 0 7.56 5.8h69a6 6 0 0 1 6 6v102a6 6 0 0 1-6 6h-208a6 6 0 0 1-6-6V386a6 6 0 0 1 6-6h120a7.83 7.83 0 0 1 7.56 5.8zM1280 406h139" stroke="#3a414a" stroke-width="2" fill="#fff"/><use xlink:href="#j" transform="matrix(1,0,0,1,1292,414) translate(79.66666666666667 53.888888888888886)"/><path d="M1417.44 560.2a7.83 7.83 0 0 0 7.56 5.8h69a6 6 0 0 1 6 6v102a6 6 0 0 1-6 6h-208a6 6 0 0 1-6-6V546a6 6 0 0 1 6-6h120a7.83 7.83 0 0 1 7.56 5.8zM1280 566h139" stroke="#3a414a" stroke-width="2" fill="#fff"/><use xlink:href="#k" transform="matrix(1,0,0,1,1292,574) translate(68.83641975308642 53.888888888888886)"/><path d="M1171.62 360H1204a6 6 0 0 0 6-6V116a6 6 0 0 1 6-6h62.04" stroke="#3a414a" stroke-width="2" fill="none"/><path d="M1171.96 360c0 8.28-6.72 15-15 15-8.3 0-15-6.72-15-15 0-8.28 6.7-15 15-15 8.28 0 15 6.72 15 15zm-30 0h30zm14.85-14.85v29.7z" stroke="#3a414a" stroke-width="2" fill="#fff"/><path d="M1279.04 111H1278v-2h1.04z" stroke="#3a414a" stroke-width=".05" fill="#3a414a"/><path d="M1278.04 270H1216a6 6 0 0 0-6 6v78a6 6 0 0 1-6 6h-32.38" stroke="#3a414a" stroke-width="2" fill="none"/><path d="M1279.04 271H1278v-2h1.04z" stroke="#3a414a" stroke-width=".05" fill="#3a414a"/><path d="M1171.96 360c0 8.28-6.72 15-15 15-8.3 0-15-6.72-15-15 0-8.28 6.7-15 15-15 8.28 0 15 6.72 15 15zm-30 0h30zm14.85-14.85v29.7z" stroke="#3a414a" stroke-width="2" fill="#fff"/><path d="M1278.04 450H1216a6 6 0 0 1-6-6v-78a6 6 0 0 0-6-6h-32.38" stroke="#3a414a" stroke-width="2" fill="none"/><path d="M1279.04 451H1278v-2h1.04z" stroke="#3a414a" stroke-width=".05" fill="#3a414a"/><path d="M1171.96 360c0 8.28-6.72 15-15 15-8.3 0-15-6.72-15-15 0-8.28 6.7-15 15-15 8.28 0 15 6.72 15 15zm-30 0h30zm14.85-14.85v29.7z" stroke="#3a414a" stroke-width="2" fill="#fff"/><path d="M1278.04 610H1216a6 6 0 0 1-6-6V366a6 6 0 0 0-6-6h-32.38" stroke="#3a414a" stroke-width="2" fill="none"/><path d="M1279.04 611H1278v-2h1.04z" stroke="#3a414a" stroke-width=".05" fill="#3a414a"/><path d="M1171.96 360c0 8.28-6.72 15-15 15-8.3 0-15-6.72-15-15 0-8.28 6.7-15 15-15 8.28 0 15 6.72 15 15zm-30 0h30zm14.85-14.85v29.7zM1397.44 1140.2a7.83 7.83 0 0 0 7.56 5.8h69a6 6 0 0 1 6 6v102a6 6 0 0 1-6 6h-208a6 6 0 0 1-6-6v-128a6 6 0 0 1 6-6h120a7.83 7.83 0 0 1 7.56 5.8zM1260 1146h139" stroke="#3a414a" stroke-width="2" fill="#fff"/><use xlink:href="#l" transform="matrix(1,0,0,1,1272,1154) translate(30.879629629629648 53.888888888888886)"/><path d="M1397.44 1300.2a7.83 7.83 0 0 0 7.56 5.8h69a6 6 0 0 1 6 6v102a6 6 0 0 1-6 6h-208a6 6 0 0 1-6-6v-128a6 6 0 0 1 6-6h120a7.83 7.83 0 0 1 7.56 5.8zM1260 1306h139" stroke="#3a414a" stroke-width="2" fill="#fff"/><use xlink:href="#m" transform="matrix(1,0,0,1,1272,1314) translate(-1.6111111111111285 53.888888888888886)"/><path d="M1397.44 1460.2a7.83 7.83 0 0 0 7.56 5.8h69a6 6 0 0 1 6 6v102a6 6 0 0 1-6 6h-208a6 6 0 0 1-6-6v-128a6 6 0 0 1 6-6h120a7.83 7.83 0 0 1 7.56 5.8zM1260 1466h139" stroke="#3a414a" stroke-width="2" fill="#fff"/><use xlink:href="#n" transform="matrix(1,0,0,1,1272,1474) translate(5.7901234567900985 53.888888888888886)"/><path d="M1397.44 980.2a7.83 7.83 0 0 0 7.56 5.8h69a6 6 0 0 1 6 6v102a6 6 0 0 1-6 6h-208a6 6 0 0 1-6-6V966a6 6 0 0 1 6-6h120a7.83 7.83 0 0 1 7.56 5.8zM1260 986h139" stroke="#3a414a" stroke-width="2" fill="#fff"/><use xlink:href="#o" transform="matrix(1,0,0,1,1272,994) translate(61.40123456790124 53.888888888888886)"/><path d="M1258.04 1030H1206a6 6 0 0 0-6 6v198a6 6 0 0 1-6 6h-22.38" stroke="#3a414a" stroke-width="2" fill="none"/><path d="M1259.04 1031H1258v-2h1.04z" stroke="#3a414a" stroke-width=".05" fill="#3a414a"/><path d="M1171.96 1240c0 8.28-6.72 15-15 15-8.3 0-15-6.72-15-15 0-8.28 6.7-15 15-15 8.28 0 15 6.72 15 15zm-30 0h30zm14.85-14.85v29.7z" stroke="#3a414a" stroke-width="2" fill="#fff"/><path d="M1258.04 1190H1206a6 6 0 0 0-6 6v38a6 6 0 0 1-6 6h-22.38" stroke="#3a414a" stroke-width="2" fill="none"/><path d="M1259.04 1191H1258v-2h1.04z" stroke="#3a414a" stroke-width=".05" fill="#3a414a"/><path d="M1171.96 1240c0 8.28-6.72 15-15 15-8.3 0-15-6.72-15-15 0-8.28 6.7-15 15-15 8.28 0 15 6.72 15 15zm-30 0h30zm14.85-14.85v29.7z" stroke="#3a414a" stroke-width="2" fill="#fff"/><path d="M1258.04 1350H1206a6 6 0 0 1-6-6v-98a6 6 0 0 0-6-6h-22.38" stroke="#3a414a" stroke-width="2" fill="none"/><path d="M1259.04 1351H1258v-2h1.04z" stroke="#3a414a" stroke-width=".05" fill="#3a414a"/><path d="M1171.96 1240c0 8.28-6.72 15-15 15-8.3 0-15-6.72-15-15 0-8.28 6.7-15 15-15 8.28 0 15 6.72 15 15zm-30 0h30zm14.85-14.85v29.7z" stroke="#3a414a" stroke-width="2" fill="#fff"/><path d="M1258.04 1510H1206a6 6 0 0 1-6-6v-258a6 6 0 0 0-6-6h-22.38" stroke="#3a414a" stroke-width="2" fill="none"/><path d="M1259.04 1511H1258v-2h1.04z" stroke="#3a414a" stroke-width=".05" fill="#3a414a"/><path d="M1171.96 1240c0 8.28-6.72 15-15 15-8.3 0-15-6.72-15-15 0-8.28 6.7-15 15-15 8.28 0 15 6.72 15 15zm-30 0h30zm14.85-14.85v29.7zM1397.44 750.2a7.83 7.83 0 0 0 7.56 5.8h69a6 6 0 0 1 6 6v102a6 6 0 0 1-6 6h-208a6 6 0 0 1-6-6V736a6 6 0 0 1 6-6h120a7.83 7.83 0 0 1 7.56 5.8zM1260 756h139" stroke="#3a414a" stroke-width="2" fill="#fff"/><use xlink:href="#p" transform="matrix(1,0,0,1,1272,764) translate(47.85493827160495 53.888888888888886)"/><path d="M1258.04 800h-86.42" stroke="#3a414a" stroke-width="2" fill="none"/><path d="M1259.04 801H1258v-2h1.04z" stroke="#3a414a" stroke-width=".05" fill="#3a414a"/><path d="M1171.96 800c0 8.28-6.72 15-15 15-8.3 0-15-6.72-15-15 0-8.28 6.7-15 15-15 8.28 0 15 6.72 15 15zm-30 0h30zm14.85-14.85v29.7z" stroke="#3a414a" stroke-width="2" fill="#fff"/><defs><path fill="#3a414a" d="M25-224v-37h50v37H25zM25 0v-190h50V0H25" id="q"/><path fill="#3a414a" d="M115-3C79 11 28 4 28-45v-112H4v-33h27l15-45h31v45h36v33H77v99c-1 23 16 31 38 25v30" id="r"/><path fill="#3a414a" d="M24 0v-54h51V0H24" id="s"/><path fill="#3a414a" d="M85 4C-2 5 27-109 22-190h50c7 57-23 150 33 157 60-5 35-97 40-157h50l1 190h-47c-2-12 1-28-3-38-12 25-28 42-61 42" id="t"/><path fill="#3a414a" d="M135-194c87-1 58 113 63 194h-50c-7-57 23-157-34-157-59 0-34 97-39 157H25l-1-190h47c2 12-1 28 3 38 12-26 28-41 61-42" id="u"/><path fill="#3a414a" d="M135-194c52 0 70 43 70 98 0 56-19 99-73 100-30 1-46-15-58-35L72 0H24l1-261h50v104c11-23 29-37 60-37zM114-30c31 0 40-27 40-66 0-37-7-63-39-63s-41 28-41 65c0 36 8 64 40 64" id="v"/><path fill="#3a414a" d="M110-194c64 0 96 36 96 99 0 64-35 99-97 99-61 0-95-36-95-99 0-62 34-99 96-99zm-1 164c35 0 45-28 45-65 0-40-10-65-43-65-34 0-45 26-45 65 0 36 10 65 43 65" id="w"/><path fill="#3a414a" d="M135-194c53 0 70 44 70 98 0 56-19 98-73 100-31 1-45-17-59-34 3 33 2 69 2 105H25l-1-265h48c2 10 0 23 3 31 11-24 29-35 60-35zM114-30c33 0 39-31 40-66 0-38-9-64-40-64-56 0-55 130 0 130" id="x"/><path fill="#3a414a" d="M137-138c1-29-70-34-71-4 15 46 118 7 119 86 1 83-164 76-172 9l43-7c4 19 20 25 44 25 33 8 57-30 24-41C81-84 22-81 20-136c-2-80 154-74 161-7" id="y"/><path fill="#3a414a" d="M135-150c-39-12-60 13-60 57V0H25l-1-190h47c2 13-1 29 3 40 6-28 27-53 61-41v41" id="z"/><path fill="#3a414a" d="M133-34C117-15 103 5 69 4 32 3 11-16 11-54c-1-60 55-63 116-61 1-26-3-47-28-47-18 1-26 9-28 27l-52-2c7-38 36-58 82-57s74 22 75 68l1 82c-1 14 12 18 25 15v27c-30 8-71 5-69-32zm-48 3c29 0 43-24 42-57-32 0-66-3-65 30 0 17 8 27 23 27" id="A"/><path fill="#3a414a" d="M190-63c-7 42-38 67-86 67-59 0-84-38-90-98-12-110 154-137 174-36l-49 2c-2-19-15-32-35-32-30 0-35 28-38 64-6 74 65 87 74 30" id="B"/><path fill="#3a414a" d="M185-48c-13 30-37 53-82 52C43 2 14-33 14-96s30-98 90-98c62 0 83 45 84 108H66c0 31 8 55 39 56 18 0 30-7 34-22zm-45-69c5-46-57-63-70-21-2 6-4 13-4 21h74" id="C"/><path fill="#3a414a" d="M14-72v-43h91v43H14" id="D"/><path fill="#3a414a" d="M220-157c-53 9-28 100-34 157h-49v-107c1-27-5-49-29-50C55-147 81-57 75 0H25l-1-190h47c2 12-1 28 3 38 10-53 101-56 108 0 13-22 24-43 59-42 82 1 51 116 57 194h-49v-107c-1-25-5-48-29-50" id="E"/><g id="a"><use transform="matrix(0.06790123456790123,0,0,0.06790123456790123,0,0)" xlink:href="#q"/><use transform="matrix(0.06790123456790123,0,0,0.06790123456790123,6.790123456790123,0)" xlink:href="#r"/><use transform="matrix(0.06790123456790123,0,0,0.06790123456790123,14.87037037037037,0)" xlink:href="#s"/><use transform="matrix(0.06790123456790123,0,0,0.06790123456790123,21.660493827160494,0)" xlink:href="#t"/><use transform="matrix(0.06790123456790123,0,0,0.06790123456790123,36.53086419753086,0)" xlink:href="#u"/><use transform="matrix(0.06790123456790123,0,0,0.06790123456790123,51.40123456790123,0)" xlink:href="#q"/><use transform="matrix(0.06790123456790123,0,0,0.06790123456790123,58.191358024691354,0)" xlink:href="#v"/><use transform="matrix(0.06790123456790123,0,0,0.06790123456790123,73.06172839506172,0)" xlink:href="#w"/><use transform="matrix(0.06790123456790123,0,0,0.06790123456790123,87.93209876543209,0)" xlink:href="#s"/><use transform="matrix(0.06790123456790123,0,0,0.06790123456790123,94.72222222222221,0)" xlink:href="#x"/><use transform="matrix(0.06790123456790123,0,0,0.06790123456790123,109.59259259259258,0)" xlink:href="#x"/><use transform="matrix(0.06790123456790123,0,0,0.06790123456790123,124.46296296296295,0)" xlink:href="#y"/><use transform="matrix(0.06790123456790123,0,0,0.06790123456790123,138.0432098765432,0)" xlink:href="#s"/><use transform="matrix(0.06790123456790123,0,0,0.06790123456790123,144.83333333333331,0)" xlink:href="#z"/><use transform="matrix(0.06790123456790123,0,0,0.06790123456790123,154.3395061728395,0)" xlink:href="#A"/><use transform="matrix(0.06790123456790123,0,0,0.06790123456790123,167.91975308641975,0)" xlink:href="#B"/><use transform="matrix(0.06790123456790123,0,0,0.06790123456790123,181.5,0)" xlink:href="#C"/><use transform="matrix(0.06790123456790123,0,0,0.06790123456790123,195.08024691358025,0)" xlink:href="#D"/><use transform="matrix(0.06790123456790123,0,0,0.06790123456790123,203.1604938271605,0)" xlink:href="#y"/><use transform="matrix(0.06790123456790123,0,0,0.06790123456790123,216.74074074074076,0)" xlink:href="#q"/><use transform="matrix(0.06790123456790123,0,0,0.06790123456790123,223.5308641975309,0)" xlink:href="#E"/></g><path fill="#3a414a" d="M88-194c31-1 46 15 58 34l-1-101h50l1 261h-48c-2-10 0-23-3-31C134-8 116 4 84 4 32 4 16-41 15-95c0-56 19-97 73-99zm17 164c33 0 40-30 41-66 1-37-9-64-41-64s-38 30-39 65c0 43 13 65 39 65" id="F"/><path fill="#3a414a" d="M25 0v-261h50V0H25" id="G"/><g id="b"><use transform="matrix(0.06790123456790123,0,0,0.06790123456790123,0,0)" xlink:href="#E"/><use transform="matrix(0.06790123456790123,0,0,0.06790123456790123,21.728395061728392,0)" xlink:href="#w"/><use transform="matrix(0.06790123456790123,0,0,0.06790123456790123,36.59876543209876,0)" xlink:href="#F"/><use transform="matrix(0.06790123456790123,0,0,0.06790123456790123,51.469135802469125,0)" xlink:href="#C"/><use transform="matrix(0.06790123456790123,0,0,0.06790123456790123,65.04938271604937,0)" xlink:href="#G"/></g><g id="c"><use transform="matrix(0.06790123456790123,0,0,0.06790123456790123,0,0)" xlink:href="#B"/><use transform="matrix(0.06790123456790123,0,0,0.06790123456790123,13.580246913580247,0)" xlink:href="#w"/><use transform="matrix(0.06790123456790123,0,0,0.06790123456790123,28.450617283950617,0)" xlink:href="#u"/><use transform="matrix(0.06790123456790123,0,0,0.06790123456790123,43.32098765432099,0)" xlink:href="#r"/><use transform="matrix(0.06790123456790123,0,0,0.06790123456790123,51.401234567901234,0)" xlink:href="#z"/><use transform="matrix(0.06790123456790123,0,0,0.06790123456790123,60.907407407407405,0)" xlink:href="#w"/><use transform="matrix(0.06790123456790123,0,0,0.06790123456790123,75.77777777777777,0)" xlink:href="#G"/><use transform="matrix(0.06790123456790123,0,0,0.06790123456790123,82.5679012345679,0)" xlink:href="#G"/><use transform="matrix(0.06790123456790123,0,0,0.06790123456790123,89.35802469135803,0)" xlink:href="#C"/><use transform="matrix(0.06790123456790123,0,0,0.06790123456790123,102.93827160493828,0)" xlink:href="#z"/></g><path fill="#3a414a" d="M123 10C108 53 80 86 19 72V37c35 8 53-11 59-39L3-190h52l48 148c12-52 28-100 44-148h51" id="H"/><g id="d"><use transform="matrix(0.06790123456790123,0,0,0.06790123456790123,0,0)" xlink:href="#t"/><use transform="matrix(0.06790123456790123,0,0,0.06790123456790123,14.87037037037037,0)" xlink:href="#r"/><use transform="matrix(0.06790123456790123,0,0,0.06790123456790123,22.950617283950617,0)" xlink:href="#q"/><use transform="matrix(0.06790123456790123,0,0,0.06790123456790123,29.74074074074074,0)" xlink:href="#G"/><use transform="matrix(0.06790123456790123,0,0,0.06790123456790123,36.53086419753086,0)" xlink:href="#q"/><use transform="matrix(0.06790123456790123,0,0,0.06790123456790123,43.32098765432099,0)" xlink:href="#r"/><use transform="matrix(0.06790123456790123,0,0,0.06790123456790123,51.401234567901234,0)" xlink:href="#H"/></g><path fill="#3a414a" d="M195-6C206 82 75 100 31 46c-4-6-6-13-8-21l49-6c3 16 16 24 34 25 40 0 42-37 40-79-11 22-30 35-61 35-53 0-70-43-70-97 0-56 18-96 73-97 30 0 46 14 59 34l2-30h47zm-90-29c32 0 41-27 41-63 0-35-9-62-40-62-32 0-39 29-40 63 0 36 9 62 39 62" id="I"/><g id="e"><use transform="matrix(0.06790123456790123,0,0,0.06790123456790123,0,0)" xlink:href="#C"/><use transform="matrix(0.06790123456790123,0,0,0.06790123456790123,13.580246913580247,0)" xlink:href="#u"/><use transform="matrix(0.06790123456790123,0,0,0.06790123456790123,28.450617283950617,0)" xlink:href="#I"/><use transform="matrix(0.06790123456790123,0,0,0.06790123456790123,43.32098765432099,0)" xlink:href="#q"/><use transform="matrix(0.06790123456790123,0,0,0.06790123456790123,50.111111111111114,0)" xlink:href="#u"/><use transform="matrix(0.06790123456790123,0,0,0.06790123456790123,64.98148148148148,0)" xlink:href="#C"/></g><path fill="#3a414a" d="M128 0H69L1-190h53L99-40l48-150h52" id="J"/><path fill="#3a414a" d="M231 0h-52l-39-155L100 0H48L-1-190h46L77-45c9-52 24-97 36-145h53l37 145 32-145h46" id="K"/><g id="f"><use transform="matrix(0.06790123456790123,0,0,0.06790123456790123,0,0)" xlink:href="#J"/><use transform="matrix(0.06790123456790123,0,0,0.06790123456790123,13.580246913580247,0)" xlink:href="#q"/><use transform="matrix(0.06790123456790123,0,0,0.06790123456790123,20.37037037037037,0)" xlink:href="#C"/><use transform="matrix(0.06790123456790123,0,0,0.06790123456790123,33.95061728395062,0)" xlink:href="#K"/></g><g id="g"><use transform="matrix(0.06790123456790123,0,0,0.06790123456790123,0,0)" xlink:href="#x"/><use transform="matrix(0.06790123456790123,0,0,0.06790123456790123,14.87037037037037,0)" xlink:href="#z"/><use transform="matrix(0.06790123456790123,0,0,0.06790123456790123,24.376543209876544,0)" xlink:href="#w"/><use transform="matrix(0.06790123456790123,0,0,0.06790123456790123,39.24691358024691,0)" xlink:href="#G"/><use transform="matrix(0.06790123456790123,0,0,0.06790123456790123,46.03703703703703,0)" xlink:href="#w"/><use transform="matrix(0.06790123456790123,0,0,0.06790123456790123,60.907407407407405,0)" xlink:href="#I"/></g><path fill="#3a414a" d="M121-226c-27-7-43 5-38 36h38v33H83V0H34v-157H6v-33h28c-9-59 32-81 87-68v32" id="L"/><g id="h"><use transform="matrix(0.06790123456790123,0,0,0.06790123456790123,0,0)" xlink:href="#L"/><use transform="matrix(0.06790123456790123,0,0,0.06790123456790123,8.080246913580247,0)" xlink:href="#A"/><use transform="matrix(0.06790123456790123,0,0,0.06790123456790123,21.660493827160494,0)" xlink:href="#B"/><use transform="matrix(0.06790123456790123,0,0,0.06790123456790123,35.24074074074074,0)" xlink:href="#r"/><use transform="matrix(0.06790123456790123,0,0,0.06790123456790123,43.32098765432099,0)" xlink:href="#w"/><use transform="matrix(0.06790123456790123,0,0,0.06790123456790123,58.191358024691354,0)" xlink:href="#z"/></g><g id="i"><use transform="matrix(0.06790123456790123,0,0,0.06790123456790123,0,0)" xlink:href="#G"/><use transform="matrix(0.06790123456790123,0,0,0.06790123456790123,6.790123456790123,0)" xlink:href="#w"/><use transform="matrix(0.06790123456790123,0,0,0.06790123456790123,21.660493827160494,0)" xlink:href="#A"/><use transform="matrix(0.06790123456790123,0,0,0.06790123456790123,35.24074074074074,0)" xlink:href="#F"/><use transform="matrix(0.06790123456790123,0,0,0.06790123456790123,50.111111111111114,0)" xlink:href="#C"/><use transform="matrix(0.06790123456790123,0,0,0.06790123456790123,63.69135802469136,0)" xlink:href="#z"/></g><g id="j"><use transform="matrix(0.06790123456790123,0,0,0.06790123456790123,0,0)" xlink:href="#B"/><use transform="matrix(0.06790123456790123,0,0,0.06790123456790123,13.580246913580247,0)" xlink:href="#A"/><use transform="matrix(0.06790123456790123,0,0,0.06790123456790123,27.160493827160494,0)" xlink:href="#z"/></g><path fill="#3a414a" d="M147 0L96-86 75-71V0H25v-261h50v150l67-79h53l-66 74L201 0h-54" id="M"/><g id="k"><use transform="matrix(0.06790123456790123,0,0,0.06790123456790123,0,0)" xlink:href="#r"/><use transform="matrix(0.06790123456790123,0,0,0.06790123456790123,8.080246913580247,0)" xlink:href="#z"/><use transform="matrix(0.06790123456790123,0,0,0.06790123456790123,17.586419753086417,0)" xlink:href="#A"/><use transform="matrix(0.06790123456790123,0,0,0.06790123456790123,31.166666666666664,0)" xlink:href="#B"/><use transform="matrix(0.06790123456790123,0,0,0.06790123456790123,44.74691358024691,0)" xlink:href="#M"/></g><path fill="#3a414a" d="M-4 44V30h207v14H-4" id="N"/><g id="l"><use transform="matrix(0.06790123456790123,0,0,0.06790123456790123,0,0)" xlink:href="#E"/><use transform="matrix(0.06790123456790123,0,0,0.06790123456790123,21.728395061728392,0)" xlink:href="#A"/><use transform="matrix(0.06790123456790123,0,0,0.06790123456790123,35.30864197530864,0)" xlink:href="#q"/><use transform="matrix(0.06790123456790123,0,0,0.06790123456790123,42.09876543209876,0)" xlink:href="#u"/><use transform="matrix(0.06790123456790123,0,0,0.06790123456790123,56.969135802469125,0)" xlink:href="#N"/><use transform="matrix(0.06790123456790123,0,0,0.06790123456790123,70.54938271604937,0)" xlink:href="#x"/><use transform="matrix(0.06790123456790123,0,0,0.06790123456790123,85.41975308641973,0)" xlink:href="#A"/><use transform="matrix(0.06790123456790123,0,0,0.06790123456790123,98.99999999999999,0)" xlink:href="#u"/><use transform="matrix(0.06790123456790123,0,0,0.06790123456790123,113.87037037037034,0)" xlink:href="#C"/><use transform="matrix(0.06790123456790123,0,0,0.06790123456790123,127.45061728395058,0)" xlink:href="#G"/></g><g id="m"><use transform="matrix(0.06790123456790123,0,0,0.06790123456790123,0,0)" xlink:href="#y"/><use transform="matrix(0.06790123456790123,0,0,0.06790123456790123,13.580246913580247,0)" xlink:href="#q"/><use transform="matrix(0.06790123456790123,0,0,0.06790123456790123,20.37037037037037,0)" xlink:href="#E"/><use transform="matrix(0.06790123456790123,0,0,0.06790123456790123,42.09876543209876,0)" xlink:href="#t"/><use transform="matrix(0.06790123456790123,0,0,0.06790123456790123,56.969135802469125,0)" xlink:href="#G"/><use transform="matrix(0.06790123456790123,0,0,0.06790123456790123,63.75925925925925,0)" xlink:href="#A"/><use transform="matrix(0.06790123456790123,0,0,0.06790123456790123,77.33950617283949,0)" xlink:href="#r"/><use transform="matrix(0.06790123456790123,0,0,0.06790123456790123,85.41975308641975,0)" xlink:href="#q"/><use transform="matrix(0.06790123456790123,0,0,0.06790123456790123,92.20987654320987,0)" xlink:href="#w"/><use transform="matrix(0.06790123456790123,0,0,0.06790123456790123,107.08024691358024,0)" xlink:href="#u"/><use transform="matrix(0.06790123456790123,0,0,0.06790123456790123,121.9506172839506,0)" xlink:href="#N"/><use transform="matrix(0.06790123456790123,0,0,0.06790123456790123,135.53086419753086,0)" xlink:href="#x"/><use transform="matrix(0.06790123456790123,0,0,0.06790123456790123,150.4012345679012,0)" xlink:href="#A"/><use transform="matrix(0.06790123456790123,0,0,0.06790123456790123,163.9814814814815,0)" xlink:href="#u"/><use transform="matrix(0.06790123456790123,0,0,0.06790123456790123,178.85185185185188,0)" xlink:href="#C"/><use transform="matrix(0.06790123456790123,0,0,0.06790123456790123,192.43209876543213,0)" xlink:href="#G"/></g><g id="n"><use transform="matrix(0.06790123456790123,0,0,0.06790123456790123,0,0)" xlink:href="#C"/><use transform="matrix(0.06790123456790123,0,0,0.06790123456790123,13.580246913580247,0)" xlink:href="#u"/><use transform="matrix(0.06790123456790123,0,0,0.06790123456790123,28.450617283950617,0)" xlink:href="#F"/><use transform="matrix(0.06790123456790123,0,0,0.06790123456790123,43.32098765432099,0)" xlink:href="#N"/><use transform="matrix(0.06790123456790123,0,0,0.06790123456790123,56.901234567901234,0)" xlink:href="#z"/><use transform="matrix(0.06790123456790123,0,0,0.06790123456790123,66.4074074074074,0)" xlink:href="#A"/><use transform="matrix(0.06790123456790123,0,0,0.06790123456790123,79.98765432098764,0)" xlink:href="#B"/><use transform="matrix(0.06790123456790123,0,0,0.06790123456790123,93.5679012345679,0)" xlink:href="#C"/><use transform="matrix(0.06790123456790123,0,0,0.06790123456790123,107.14814814814815,0)" xlink:href="#N"/><use transform="matrix(0.06790123456790123,0,0,0.06790123456790123,120.7283950617284,0)" xlink:href="#x"/><use transform="matrix(0.06790123456790123,0,0,0.06790123456790123,135.5987654320988,0)" xlink:href="#A"/><use transform="matrix(0.06790123456790123,0,0,0.06790123456790123,149.17901234567904,0)" xlink:href="#u"/><use transform="matrix(0.06790123456790123,0,0,0.06790123456790123,164.04938271604942,0)" xlink:href="#C"/><use transform="matrix(0.06790123456790123,0,0,0.06790123456790123,177.62962962962968,0)" xlink:href="#G"/></g><path fill="#3a414a" d="M114-157C55-157 80-60 75 0H25v-261h50l-1 109c12-26 28-41 61-42 86-1 58 113 63 194h-50c-7-57 23-157-34-157" id="O"/><g id="o"><use transform="matrix(0.06790123456790123,0,0,0.06790123456790123,0,0)" xlink:href="#B"/><use transform="matrix(0.06790123456790123,0,0,0.06790123456790123,13.580246913580247,0)" xlink:href="#O"/><use transform="matrix(0.06790123456790123,0,0,0.06790123456790123,28.450617283950617,0)" xlink:href="#A"/><use transform="matrix(0.06790123456790123,0,0,0.06790123456790123,42.03086419753086,0)" xlink:href="#z"/><use transform="matrix(0.06790123456790123,0,0,0.06790123456790123,51.53703703703703,0)" xlink:href="#r"/><use transform="matrix(0.06790123456790123,0,0,0.06790123456790123,59.61728395061728,0)" xlink:href="#y"/></g><g id="p"><use transform="matrix(0.06790123456790123,0,0,0.06790123456790123,0,0)" xlink:href="#E"/><use transform="matrix(0.06790123456790123,0,0,0.06790123456790123,21.728395061728392,0)" xlink:href="#w"/><use transform="matrix(0.06790123456790123,0,0,0.06790123456790123,36.59876543209876,0)" xlink:href="#u"/><use transform="matrix(0.06790123456790123,0,0,0.06790123456790123,51.469135802469125,0)" xlink:href="#A"/><use transform="matrix(0.06790123456790123,0,0,0.06790123456790123,65.04938271604937,0)" xlink:href="#F"/><use transform="matrix(0.06790123456790123,0,0,0.06790123456790123,79.91975308641973,0)" xlink:href="#q"/><use transform="matrix(0.06790123456790123,0,0,0.06790123456790123,86.70987654320986,0)" xlink:href="#B"/></g></defs></g></svg>