<svg xmlns="http://www.w3.org/2000/svg" xmlns:xlink="http://www.w3.org/1999/xlink" xmlns:lucid="lucid" width="1520" height="700"><g transform="translate(-80 0)" lucid:page-tab-id="D8nCb0eC.U.p"><path d="M210 446a6 6 0 0 1 6-6h168a6 6 0 0 1 6 6v68a6 6 0 0 1-6 6H216a6 6 0 0 1-6-6z" stroke="#3a414a" stroke-width="2" fill="#fff"/><use xlink:href="#a" transform="matrix(1,0,0,1,218,448) translate(64.1604938271605 36.44444444444444)"/><path d="M1120 246a6 6 0 0 1 6-6h168a6 6 0 0 1 6 6v68a6 6 0 0 1-6 6h-168a6 6 0 0 1-6-6z" stroke="#3a414a" stroke-width="2" fill="#fff"/><use xlink:href="#b" transform="matrix(1,0,0,1,1128,248) translate(54.68518518518518 36.44444444444444)"/><path d="M1120 386a6 6 0 0 1 6-6h168a6 6 0 0 1 6 6v68a6 6 0 0 1-6 6h-168a6 6 0 0 1-6-6z" stroke="#3a414a" stroke-width="2" fill="#fff"/><use xlink:href="#c" transform="matrix(1,0,0,1,1128,388) translate(49.932098765432094 36.44444444444444)"/><path d="M1210 378.04V351.7" stroke="#3a414a" stroke-width="2" fill="none"/><path d="M1211 379.04h-2V378h2z" stroke="#3a414a" stroke-width=".05" fill="#3a414a"/><path d="M1210 322.38l14.85 14.85-14.85 15.15-14.85-15.15z" stroke="#3a414a" stroke-width="2" fill="#3a414a"/><path d="M1000 546a6 6 0 0 1 6-6h168a6 6 0 0 1 6 6v68a6 6 0 0 1-6 6h-168a6 6 0 0 1-6-6z" stroke="#3a414a" stroke-width="2" fill="#fff"/><use xlink:href="#d" transform="matrix(1,0,0,1,1008,548) translate(43.79012345679013 36.44444444444444)"/><path d="M1240 546a6 6 0 0 1 6-6h168a6 6 0 0 1 6 6v68a6 6 0 0 1-6 6h-168a6 6 0 0 1-6-6z" stroke="#3a414a" stroke-width="2" fill="#fff"/><use xlink:href="#e" transform="matrix(1,0,0,1,1248,548) translate(59.623456790123456 36.44444444444444)"/><path d="M1090 538.04V506a6 6 0 0 1 6-6h108a6 6 0 0 0 6-6v-14.53" stroke="#3a414a" stroke-width="2" fill="none"/><path d="M1091 539.04h-2V538h2z" stroke="#3a414a" stroke-width=".05" fill="#3a414a"/><path d="M1210 464.2l4.64 14.27h-9.28z" stroke="#3a414a" stroke-width="2" fill="#3a414a"/><path d="M1330 538.04V506a6 6 0 0 0-6-6h-108a6 6 0 0 1-6-6v-14.53" stroke="#3a414a" stroke-width="2" fill="none"/><path d="M1331 539.04h-2V538h2z" stroke="#3a414a" stroke-width=".05" fill="#3a414a"/><path d="M1210 464.2l4.64 14.27h-9.28z" stroke="#3a414a" stroke-width="2" fill="#fff"/><path d="M300 406.7v31.34" stroke="#3a414a" stroke-width="2" fill="none"/><path d="M300 377.38l14.85 14.85L300 407.38l-14.85-15.15z" stroke="#3a414a" stroke-width="2" fill="#3a414a"/><path d="M301 439.04h-2V438h2z" stroke="#3a414a" stroke-width=".05" fill="#3a414a"/><path d="M700 26a6 6 0 0 1 6-6h208a6 6 0 0 1 6 6v108a6 6 0 0 1-6 6H706a6 6 0 0 1-6-6z" stroke="#3a414a" stroke-width="2" fill="#fff"/><path d="M680 46a6 6 0 0 1 6-6h28a6 6 0 0 1 6 6v8a6 6 0 0 1-6 6h-28a6 6 0 0 1-6-6zM680 106a6 6 0 0 1 6-6h28a6 6 0 0 1 6 6v8a6 6 0 0 1-6 6h-28a6 6 0 0 1-6-6z" stroke="#3a414a" stroke-width="2" fill="#fff"/><use xlink:href="#f" transform="matrix(1,0,0,1,728,32) translate(10.141975308641975 52.44444444444444)"/><use xlink:href="#g" transform="matrix(1,0,0,1,728,32) translate(80.32716049382715 52.44444444444444)"/><path d="M300 238.04V196a6 6 0 0 1 6-6h488a6 6 0 0 0 6-6v-12.28" stroke="#3a414a" stroke-width="2" fill="none"/><path d="M301 239.04h-2V238h2z" stroke="#3a414a" stroke-width=".05" fill="#3a414a"/><path d="M800 142.38l14.85 14.85L800 172.38l-14.85-15.15z" stroke="#3a414a" stroke-width="2" fill="#3a414a"/><path d="M1210 238.04V196a6 6 0 0 0-6-6H806a6 6 0 0 1-6-6v-12.28" stroke="#3a414a" stroke-width="2" fill="none"/><path d="M1211 239.04h-2V238h2z" stroke="#3a414a" stroke-width=".05" fill="#3a414a"/><path d="M800 142.38l14.85 14.85L800 172.38l-14.85-15.15z" stroke="#3a414a" stroke-width="2" fill="#3a414a"/><path d="M120 246a6 6 0 0 1 6-6h348a6 6 0 0 1 6 6v123a6 6 0 0 1-6 6H126a6 6 0 0 1-6-6z" stroke="#3a414a" stroke-width="2" fill="#fff"/><path d="M120 277.6h360" stroke="#3a414a" stroke-width="2" fill="none"/><use xlink:href="#h" transform="matrix(1,0,0,1,128,248) translate(131.125 14.6)"/><use xlink:href="#i" transform="matrix(1,0,0,1,132,285.6) translate(0 32.111111111111114)"/><use xlink:href="#j" transform="matrix(1,0,0,1,132,285.6) translate(19.1358024691358 32.111111111111114)"/><use xlink:href="#k" transform="matrix(1,0,0,1,132,285.6) translate(73.33333333333333 32.111111111111114)"/><use xlink:href="#i" transform="matrix(1,0,0,1,132,285.6) translate(0 58.77777777777778)"/><use xlink:href="#l" transform="matrix(1,0,0,1,132,285.6) translate(19.1358024691358 58.77777777777778)"/><use xlink:href="#m" transform="matrix(1,0,0,1,132,285.6) translate(73.39506172839506 58.77777777777778)"/><path d="M1400 246a6 6 0 0 1 6-6h168a6 6 0 0 1 6 6v68a6 6 0 0 1-6 6h-168a6 6 0 0 1-6-6z" stroke="#3a414a" stroke-width="2" fill="#fff"/><use xlink:href="#n" transform="matrix(1,0,0,1,1408,248) translate(18.51234567901234 36.44444444444444)"/><path d="M1398.04 280h-66.33" stroke="#3a414a" stroke-width="2" fill="none"/><path d="M1399.04 281H1398v-2h1.04z" stroke="#3a414a" stroke-width=".05" fill="#3a414a"/><path d="M1302.38 280l14.85-14.85 15.15 14.85-15.15 14.85z" stroke="#3a414a" stroke-width="2" fill="#3a414a"/><path d="M100 606a6 6 0 0 1 6-6h168a6 6 0 0 1 6 6v68a6 6 0 0 1-6 6H106a6 6 0 0 1-6-6z" stroke="#3a414a" stroke-width="2" fill="#fff"/><use xlink:href="#o" transform="matrix(1,0,0,1,108,608) translate(52.49382716049383 36.44444444444444)"/><path d="M320 606a6 6 0 0 1 6-6h168a6 6 0 0 1 6 6v68a6 6 0 0 1-6 6H326a6 6 0 0 1-6-6z" stroke="#3a414a" stroke-width="2" fill="#fff"/><use xlink:href="#p" transform="matrix(1,0,0,1,328,608) translate(60.45679012345679 36.44444444444444)"/><path d="M620 246a6 6 0 0 1 6-6h348a6 6 0 0 1 6 6v96a6 6 0 0 1-6 6H626a6 6 0 0 1-6-6z" stroke="#3a414a" stroke-width="2" fill="#fff"/><path d="M620 277.6h360" stroke="#3a414a" stroke-width="2" fill="none"/><use xlink:href="#q" transform="matrix(1,0,0,1,628,248) translate(128.625 14.6)"/><use xlink:href="#i" transform="matrix(1,0,0,1,632,285.6) translate(0 31.944444444444443)"/><use xlink:href="#l" transform="matrix(1,0,0,1,632,285.6) translate(19.1358024691358 31.944444444444443)"/><use xlink:href="#m" transform="matrix(1,0,0,1,632,285.6) translate(73.39506172839506 31.944444444444443)"/><path d="M800 238.04v-66.32" stroke="#3a414a" stroke-width="2" fill="none"/><path d="M801 239.04h-2V238h2z" stroke="#3a414a" stroke-width=".05" fill="#3a414a"/><path d="M800 142.38l14.85 14.85L800 172.38l-14.85-15.15z" stroke="#3a414a" stroke-width="2" fill="#3a414a"/><path d="M410 598.04V576a6 6 0 0 0-6-6h-98a6 6 0 0 1-6-6v-12.3" stroke="#3a414a" stroke-width="2" fill="none"/><path d="M411 599.04h-2V598h2z" stroke="#3a414a" stroke-width=".05" fill="#3a414a"/><path d="M300 522.38l14.85 14.85L300 552.38l-14.85-15.15z" stroke="#3a414a" stroke-width="2" fill="#3a414a"/><path d="M190 598.04V576a6 6 0 0 1 6-6h98a6 6 0 0 0 6-6v-12.3" stroke="#3a414a" stroke-width="2" fill="none"/><path d="M191 599.04h-2V598h2z" stroke="#3a414a" stroke-width=".05" fill="#3a414a"/><path d="M300 522.38l14.85 14.85L300 552.38l-14.85-15.15z" stroke="#3a414a" stroke-width="2" fill="#3a414a"/><defs><path fill="#3a414a" d="M212-179c-10-28-35-45-73-45-59 0-87 40-87 99 0 60 29 101 89 101 43 0 62-24 78-52l27 14C228-24 195 4 139 4 59 4 22-46 18-125c-6-104 99-153 187-111 19 9 31 26 39 46" id="r"/><path fill="#3a414a" d="M141-36C126-15 110 5 73 4 37 3 15-17 15-53c-1-64 63-63 125-63 3-35-9-54-41-54-24 1-41 7-42 31l-33-3c5-37 33-52 76-52 45 0 72 20 72 64v82c-1 20 7 32 28 27v20c-31 9-61-2-59-35zM48-53c0 20 12 33 32 33 41-3 63-29 60-74-43 2-92-5-92 41" id="s"/><path fill="#3a414a" d="M114-163C36-179 61-72 57 0H25l-1-190h30c1 12-1 29 2 39 6-27 23-49 58-41v29" id="t"/><g id="a"><use transform="matrix(0.06172839506172839,0,0,0.06172839506172839,0,0)" xlink:href="#r"/><use transform="matrix(0.06172839506172839,0,0,0.06172839506172839,15.987654320987653,0)" xlink:href="#s"/><use transform="matrix(0.06172839506172839,0,0,0.06172839506172839,28.333333333333332,0)" xlink:href="#t"/></g><path fill="#3a414a" d="M127-220V0H93v-220H8v-28h204v28h-85" id="u"/><path fill="#3a414a" d="M96-169c-40 0-48 33-48 73s9 75 48 75c24 0 41-14 43-38l32 2c-6 37-31 61-74 61-59 0-76-41-82-99-10-93 101-131 147-64 4 7 5 14 7 22l-32 3c-4-21-16-35-41-35" id="v"/><path fill="#3a414a" d="M143 0L79-87 56-68V0H24v-261h32v163l83-92h37l-77 82L181 0h-38" id="w"/><g id="b"><use transform="matrix(0.06172839506172839,0,0,0.06172839506172839,0,0)" xlink:href="#u"/><use transform="matrix(0.06172839506172839,0,0,0.06172839506172839,12.716049382716047,0)" xlink:href="#t"/><use transform="matrix(0.06172839506172839,0,0,0.06172839506172839,20.061728395061728,0)" xlink:href="#s"/><use transform="matrix(0.06172839506172839,0,0,0.06172839506172839,32.407407407407405,0)" xlink:href="#v"/><use transform="matrix(0.06172839506172839,0,0,0.06172839506172839,43.51851851851852,0)" xlink:href="#w"/></g><path fill="#3a414a" d="M185-189c-5-48-123-54-124 2 14 75 158 14 163 119 3 78-121 87-175 55-17-10-28-26-33-46l33-7c5 56 141 63 141-1 0-78-155-14-162-118-5-82 145-84 179-34 5 7 8 16 11 25" id="x"/><path fill="#3a414a" d="M100-194c63 0 86 42 84 106H49c0 40 14 67 53 68 26 1 43-12 49-29l28 8c-11 28-37 45-77 45C44 4 14-33 15-96c1-61 26-98 85-98zm52 81c6-60-76-77-97-28-3 7-6 17-6 28h103" id="y"/><path fill="#3a414a" d="M59-47c-2 24 18 29 38 22v24C64 9 27 4 27-40v-127H5v-23h24l9-43h21v43h35v23H59v120" id="z"/><path fill="#3a414a" d="M100-194c62-1 85 37 85 99 1 63-27 99-86 99S16-35 15-95c0-66 28-99 85-99zM99-20c44 1 53-31 53-75 0-43-8-75-51-75s-53 32-53 75 10 74 51 75" id="A"/><g id="c"><use transform="matrix(0.06172839506172839,0,0,0.06172839506172839,0,0)" xlink:href="#x"/><use transform="matrix(0.06172839506172839,0,0,0.06172839506172839,14.814814814814813,0)" xlink:href="#y"/><use transform="matrix(0.06172839506172839,0,0,0.06172839506172839,27.160493827160494,0)" xlink:href="#v"/><use transform="matrix(0.06172839506172839,0,0,0.06172839506172839,38.27160493827161,0)" xlink:href="#z"/><use transform="matrix(0.06172839506172839,0,0,0.06172839506172839,44.44444444444445,0)" xlink:href="#A"/><use transform="matrix(0.06172839506172839,0,0,0.06172839506172839,56.79012345679013,0)" xlink:href="#t"/></g><path fill="#3a414a" d="M24-231v-30h32v30H24zM24 0v-190h32V0H24" id="B"/><path fill="#3a414a" d="M177-190C167-65 218 103 67 71c-23-6-38-20-44-43l32-5c15 47 100 32 89-28v-30C133-14 115 1 83 1 29 1 15-40 15-95c0-56 16-97 71-98 29-1 48 16 59 35 1-10 0-23 2-32h30zM94-22c36 0 50-32 50-73 0-42-14-75-50-75-39 0-46 34-46 75s6 73 46 73" id="C"/><path fill="#3a414a" d="M106-169C34-169 62-67 57 0H25v-261h32l-1 103c12-21 28-36 61-36 89 0 53 116 60 194h-32v-121c2-32-8-49-39-48" id="D"/><g id="d"><use transform="matrix(0.06172839506172839,0,0,0.06172839506172839,0,0)" xlink:href="#x"/><use transform="matrix(0.06172839506172839,0,0,0.06172839506172839,14.814814814814813,0)" xlink:href="#z"/><use transform="matrix(0.06172839506172839,0,0,0.06172839506172839,20.98765432098765,0)" xlink:href="#t"/><use transform="matrix(0.06172839506172839,0,0,0.06172839506172839,28.33333333333333,0)" xlink:href="#s"/><use transform="matrix(0.06172839506172839,0,0,0.06172839506172839,40.679012345679006,0)" xlink:href="#B"/><use transform="matrix(0.06172839506172839,0,0,0.06172839506172839,45.55555555555555,0)" xlink:href="#C"/><use transform="matrix(0.06172839506172839,0,0,0.06172839506172839,57.90123456790123,0)" xlink:href="#D"/><use transform="matrix(0.06172839506172839,0,0,0.06172839506172839,70.24691358024691,0)" xlink:href="#z"/></g><path fill="#3a414a" d="M84 4C-5 8 30-112 23-190h32v120c0 31 7 50 39 49 72-2 45-101 50-169h31l1 190h-30c-1-10 1-25-2-33-11 22-28 36-60 37" id="E"/><path fill="#3a414a" d="M117-194c89-4 53 116 60 194h-32v-121c0-31-8-49-39-48C34-167 62-67 57 0H25l-1-190h30c1 10-1 24 2 32 11-22 29-35 61-36" id="F"/><g id="e"><use transform="matrix(0.06172839506172839,0,0,0.06172839506172839,0,0)" xlink:href="#u"/><use transform="matrix(0.06172839506172839,0,0,0.06172839506172839,12.716049382716047,0)" xlink:href="#E"/><use transform="matrix(0.06172839506172839,0,0,0.06172839506172839,25.061728395061728,0)" xlink:href="#t"/><use transform="matrix(0.06172839506172839,0,0,0.06172839506172839,32.407407407407405,0)" xlink:href="#F"/></g><path fill="#3a414a" d="M230 0l2-204L168 0h-37L68-204 70 0H24v-248h70l56 185 57-185h69V0h-46" id="G"/><path fill="#3a414a" d="M110-194c64 0 96 36 96 99 0 64-35 99-97 99-61 0-95-36-95-99 0-62 34-99 96-99zm-1 164c35 0 45-28 45-65 0-40-10-65-43-65-34 0-45 26-45 65 0 36 10 65 43 65" id="H"/><path fill="#3a414a" d="M88-194c31-1 46 15 58 34l-1-101h50l1 261h-48c-2-10 0-23-3-31C134-8 116 4 84 4 32 4 16-41 15-95c0-56 19-97 73-99zm17 164c33 0 40-30 41-66 1-37-9-64-41-64s-38 30-39 65c0 43 13 65 39 65" id="I"/><path fill="#3a414a" d="M185-48c-13 30-37 53-82 52C43 2 14-33 14-96s30-98 90-98c62 0 83 45 84 108H66c0 31 8 55 39 56 18 0 30-7 34-22zm-45-69c5-46-57-63-70-21-2 6-4 13-4 21h74" id="J"/><path fill="#3a414a" d="M25 0v-261h50V0H25" id="K"/><g id="f"><use transform="matrix(0.06172839506172839,0,0,0.06172839506172839,0,0)" xlink:href="#G"/><use transform="matrix(0.06172839506172839,0,0,0.06172839506172839,18.456790123456788,0)" xlink:href="#H"/><use transform="matrix(0.06172839506172839,0,0,0.06172839506172839,31.9753086419753,0)" xlink:href="#I"/><use transform="matrix(0.06172839506172839,0,0,0.06172839506172839,45.49382716049382,0)" xlink:href="#J"/><use transform="matrix(0.06172839506172839,0,0,0.06172839506172839,57.8395061728395,0)" xlink:href="#K"/></g><path fill="#3a414a" d="M85 4C-2 5 27-109 22-190h50c7 57-23 150 33 157 60-5 35-97 40-157h50l1 190h-47c-2-12 1-28-3-38-12 25-28 42-61 42" id="L"/><g id="g"><use transform="matrix(0.06172839506172839,0,0,0.06172839506172839,0,0)" xlink:href="#G"/><use transform="matrix(0.06172839506172839,0,0,0.06172839506172839,18.456790123456788,0)" xlink:href="#H"/><use transform="matrix(0.06172839506172839,0,0,0.06172839506172839,31.9753086419753,0)" xlink:href="#I"/><use transform="matrix(0.06172839506172839,0,0,0.06172839506172839,45.49382716049382,0)" xlink:href="#L"/><use transform="matrix(0.06172839506172839,0,0,0.06172839506172839,59.01234567901234,0)" xlink:href="#K"/><use transform="matrix(0.06172839506172839,0,0,0.06172839506172839,65.18518518518518,0)" xlink:href="#J"/></g><path d="M169-182c-1-43-94-46-97-3 18 66 151 10 154 114 3 95-165 93-204 36-6-8-10-19-12-30l50-8c3 46 112 56 116 5-17-69-150-10-154-114-4-87 153-88 188-35 5 8 8 18 10 28" id="M"/><path d="M135-194c87-1 58 113 63 194h-50c-7-57 23-157-34-157-59 0-34 97-39 157H25l-1-190h47c2 12-1 28 3 38 12-26 28-41 61-42" id="N"/><path d="M133-34C117-15 103 5 69 4 32 3 11-16 11-54c-1-60 55-63 116-61 1-26-3-47-28-47-18 1-26 9-28 27l-52-2c7-38 36-58 82-57s74 22 75 68l1 82c-1 14 12 18 25 15v27c-30 8-71 5-69-32zm-48 3c29 0 43-24 42-57-32 0-66-3-65 30 0 17 8 27 23 27" id="O"/><path d="M135-194c53 0 70 44 70 98 0 56-19 98-73 100-31 1-45-17-59-34 3 33 2 69 2 105H25l-1-265h48c2 10 0 23 3 31 11-24 29-35 60-35zM114-30c33 0 39-31 40-66 0-38-9-64-40-64-56 0-55 130 0 130" id="P"/><path d="M137-138c1-29-70-34-71-4 15 46 118 7 119 86 1 83-164 76-172 9l43-7c4 19 20 25 44 25 33 8 57-30 24-41C81-84 22-81 20-136c-2-80 154-74 161-7" id="Q"/><path d="M114-157C55-157 80-60 75 0H25v-261h50l-1 109c12-26 28-41 61-42 86-1 58 113 63 194h-50c-7-57 23-157-34-157" id="R"/><path d="M110-194c64 0 96 36 96 99 0 64-35 99-97 99-61 0-95-36-95-99 0-62 34-99 96-99zm-1 164c35 0 45-28 45-65 0-40-10-65-43-65-34 0-45 26-45 65 0 36 10 65 43 65" id="S"/><path d="M115-3C79 11 28 4 28-45v-112H4v-33h27l15-45h31v45h36v33H77v99c-1 23 16 31 38 25v30" id="T"/><g id="h"><use transform="matrix(0.05,0,0,0.05,0,0)" xlink:href="#M"/><use transform="matrix(0.05,0,0,0.05,12,0)" xlink:href="#N"/><use transform="matrix(0.05,0,0,0.05,22.950000000000003,0)" xlink:href="#O"/><use transform="matrix(0.05,0,0,0.05,32.95,0)" xlink:href="#P"/><use transform="matrix(0.05,0,0,0.05,43.900000000000006,0)" xlink:href="#Q"/><use transform="matrix(0.05,0,0,0.05,53.900000000000006,0)" xlink:href="#R"/><use transform="matrix(0.05,0,0,0.05,64.85000000000001,0)" xlink:href="#S"/><use transform="matrix(0.05,0,0,0.05,75.80000000000001,0)" xlink:href="#T"/></g><path fill="#3a414a" d="M118-107v75H92v-75H18v-26h74v-75h26v75h74v26h-74" id="U"/><use transform="matrix(0.06172839506172839,0,0,0.06172839506172839,0,0)" xlink:href="#U" id="i"/><path fill="#3a414a" d="M210-169c-67 3-38 105-44 169h-31v-121c0-29-5-50-35-48C34-165 62-65 56 0H25l-1-190h30c1 10-1 24 2 32 10-44 99-50 107 0 11-21 27-35 58-36 85-2 47 119 55 194h-31v-121c0-29-5-49-35-48" id="V"/><path fill="#3a414a" d="M33-154v-36h34v36H33zM33 0v-36h34V0H33" id="W"/><g id="j"><use transform="matrix(0.06172839506172839,0,0,0.06172839506172839,0,0)" xlink:href="#z"/><use transform="matrix(0.06172839506172839,0,0,0.06172839506172839,6.172839506172839,0)" xlink:href="#B"/><use transform="matrix(0.06172839506172839,0,0,0.06172839506172839,11.049382716049383,0)" xlink:href="#V"/><use transform="matrix(0.06172839506172839,0,0,0.06172839506172839,29.50617283950617,0)" xlink:href="#y"/><use transform="matrix(0.06172839506172839,0,0,0.06172839506172839,41.85185185185185,0)" xlink:href="#W"/></g><path fill="#3a414a" d="M33 0v-248h34V0H33" id="X"/><g id="k"><use transform="matrix(0.06172839506172839,0,0,0.06172839506172839,0,0)" xlink:href="#X"/><use transform="matrix(0.06172839506172839,0,0,0.06172839506172839,6.172839506172839,0)" xlink:href="#F"/><use transform="matrix(0.06172839506172839,0,0,0.06172839506172839,18.51851851851852,0)" xlink:href="#z"/></g><path fill="#3a414a" d="M135-143c-3-34-86-38-87 0 15 53 115 12 119 90S17 21 10-45l28-5c4 36 97 45 98 0-10-56-113-15-118-90-4-57 82-63 122-42 12 7 21 19 24 35" id="Y"/><g id="l"><use transform="matrix(0.06172839506172839,0,0,0.06172839506172839,0,0)" xlink:href="#v"/><use transform="matrix(0.06172839506172839,0,0,0.06172839506172839,11.11111111111111,0)" xlink:href="#s"/><use transform="matrix(0.06172839506172839,0,0,0.06172839506172839,23.45679012345679,0)" xlink:href="#t"/><use transform="matrix(0.06172839506172839,0,0,0.06172839506172839,30.80246913580247,0)" xlink:href="#Y"/><use transform="matrix(0.06172839506172839,0,0,0.06172839506172839,41.91358024691358,0)" xlink:href="#W"/></g><path fill="#3a414a" d="M30 0v-248h33v221h125V0H30" id="Z"/><path fill="#3a414a" d="M26 75v-336h71v23H56V52h41v23H26" id="aa"/><path fill="#3a414a" d="M3 75V52h41v-290H3v-23h71V75H3" id="ab"/><g id="m"><use transform="matrix(0.06172839506172839,0,0,0.06172839506172839,0,0)" xlink:href="#Z"/><use transform="matrix(0.06172839506172839,0,0,0.06172839506172839,12.345679012345679,0)" xlink:href="#B"/><use transform="matrix(0.06172839506172839,0,0,0.06172839506172839,17.22222222222222,0)" xlink:href="#Y"/><use transform="matrix(0.06172839506172839,0,0,0.06172839506172839,28.333333333333332,0)" xlink:href="#z"/><use transform="matrix(0.06172839506172839,0,0,0.06172839506172839,34.50617283950617,0)" xlink:href="#aa"/><use transform="matrix(0.06172839506172839,0,0,0.06172839506172839,40.67901234567901,0)" xlink:href="#r"/><use transform="matrix(0.06172839506172839,0,0,0.06172839506172839,56.666666666666664,0)" xlink:href="#s"/><use transform="matrix(0.06172839506172839,0,0,0.06172839506172839,69.01234567901234,0)" xlink:href="#t"/><use transform="matrix(0.06172839506172839,0,0,0.06172839506172839,76.35802469135803,0)" xlink:href="#ab"/></g><path fill="#3a414a" d="M30-248c87 1 191-15 191 75 0 78-77 80-158 76V0H30v-248zm33 125c57 0 124 11 124-50 0-59-68-47-124-48v98" id="ac"/><g id="n"><use transform="matrix(0.06172839506172839,0,0,0.06172839506172839,0,0)" xlink:href="#x"/><use transform="matrix(0.06172839506172839,0,0,0.06172839506172839,14.814814814814813,0)" xlink:href="#z"/><use transform="matrix(0.06172839506172839,0,0,0.06172839506172839,20.98765432098765,0)" xlink:href="#s"/><use transform="matrix(0.06172839506172839,0,0,0.06172839506172839,33.33333333333333,0)" xlink:href="#t"/><use transform="matrix(0.06172839506172839,0,0,0.06172839506172839,40.679012345679006,0)" xlink:href="#z"/><use transform="matrix(0.06172839506172839,0,0,0.06172839506172839,46.85185185185185,0)" xlink:href="#B"/><use transform="matrix(0.06172839506172839,0,0,0.06172839506172839,51.72839506172839,0)" xlink:href="#F"/><use transform="matrix(0.06172839506172839,0,0,0.06172839506172839,64.07407407407408,0)" xlink:href="#C"/><use transform="matrix(0.06172839506172839,0,0,0.06172839506172839,76.41975308641976,0)" xlink:href="#ac"/><use transform="matrix(0.06172839506172839,0,0,0.06172839506172839,91.23456790123457,0)" xlink:href="#A"/><use transform="matrix(0.06172839506172839,0,0,0.06172839506172839,103.58024691358025,0)" xlink:href="#B"/><use transform="matrix(0.06172839506172839,0,0,0.06172839506172839,108.4567901234568,0)" xlink:href="#F"/><use transform="matrix(0.06172839506172839,0,0,0.06172839506172839,120.80246913580248,0)" xlink:href="#z"/></g><path fill="#3a414a" d="M30-248c118-7 216 8 213 122C240-48 200 0 122 0H30v-248zM63-27c89 8 146-16 146-99s-60-101-146-95v194" id="ad"/><path fill="#3a414a" d="M108 0H70L1-190h34L89-25l56-165h34" id="ae"/><g id="o"><use transform="matrix(0.06172839506172839,0,0,0.06172839506172839,0,0)" xlink:href="#ad"/><use transform="matrix(0.06172839506172839,0,0,0.06172839506172839,15.987654320987653,0)" xlink:href="#t"/><use transform="matrix(0.06172839506172839,0,0,0.06172839506172839,23.333333333333332,0)" xlink:href="#B"/><use transform="matrix(0.06172839506172839,0,0,0.06172839506172839,28.209876543209873,0)" xlink:href="#ae"/><use transform="matrix(0.06172839506172839,0,0,0.06172839506172839,39.32098765432099,0)" xlink:href="#y"/><use transform="matrix(0.06172839506172839,0,0,0.06172839506172839,51.666666666666664,0)" xlink:href="#t"/></g><path fill="#3a414a" d="M179-190L93 31C79 59 56 82 12 73V49c39 6 53-20 64-50L1-190h34L92-34l54-156h33" id="af"/><g id="p"><use transform="matrix(0.06172839506172839,0,0,0.06172839506172839,0,0)" xlink:href="#u"/><use transform="matrix(0.06172839506172839,0,0,0.06172839506172839,12.28395061728395,0)" xlink:href="#af"/><use transform="matrix(0.06172839506172839,0,0,0.06172839506172839,23.39506172839506,0)" xlink:href="#t"/><use transform="matrix(0.06172839506172839,0,0,0.06172839506172839,30.74074074074074,0)" xlink:href="#y"/></g><path d="M88-194c31-1 46 15 58 34l-1-101h50l1 261h-48c-2-10 0-23-3-31C134-8 116 4 84 4 32 4 16-41 15-95c0-56 19-97 73-99zm17 164c33 0 40-30 41-66 1-37-9-64-41-64s-38 30-39 65c0 43 13 65 39 65" id="ag"/><path d="M25-224v-37h50v37H25zM25 0v-190h50V0H25" id="ah"/><path d="M195-6C206 82 75 100 31 46c-4-6-6-13-8-21l49-6c3 16 16 24 34 25 40 0 42-37 40-79-11 22-30 35-61 35-53 0-70-43-70-97 0-56 18-96 73-97 30 0 46 14 59 34l2-30h47zm-90-29c32 0 41-27 41-63 0-35-9-62-40-62-32 0-39 29-40 63 0 36 9 62 39 62" id="ai"/><g id="q"><use transform="matrix(0.05,0,0,0.05,0,0)" xlink:href="#M"/><use transform="matrix(0.05,0,0,0.05,12,0)" xlink:href="#T"/><use transform="matrix(0.05,0,0,0.05,17.95,0)" xlink:href="#O"/><use transform="matrix(0.05,0,0,0.05,27.950000000000003,0)" xlink:href="#N"/><use transform="matrix(0.05,0,0,0.05,38.9,0)" xlink:href="#ag"/><use transform="matrix(0.05,0,0,0.05,49.85,0)" xlink:href="#ah"/><use transform="matrix(0.05,0,0,0.05,54.85,0)" xlink:href="#N"/><use transform="matrix(0.05,0,0,0.05,65.8,0)" xlink:href="#ai"/><use transform="matrix(0.05,0,0,0.05,76.75,0)" xlink:href="#Q"/></g></defs></g></svg>
